<?xml version="1.0"?>
<svg width="32" height="32" xmlns="http://www.w3.org/2000/svg" xmlns:svg="http://www.w3.org/2000/svg">

 <g class="layer">
  <title>Layer 1</title>
  <path d="m7.5,5c-1.37,0 -2.5,1.13 -2.5,2.5l0,17c0,1.37 1.13,2.5 2.5,2.5l17,0c1.37,0 2.5,-1.13 2.5,-2.5l0,-17c0,-1.37 -1.13,-2.5 -2.5,-2.5l-17,0zm0,2l17,0c0.29,0 0.5,0.21 0.5,0.5l0,17c0,0.29 -0.21,0.5 -0.5,0.5l-17,0c-0.29,0 -0.5,-0.21 -0.5,-0.5l0,-17c0,-0.29 0.21,-0.5 0.5,-0.5zm2.94,1.72c-0.95,0 -1.72,0.77 -1.72,1.72c0,0.95 0.77,1.72 1.72,1.72c0.95,0 1.72,-0.77 1.72,-1.72c0,-0.95 -0.77,-1.72 -1.72,-1.72zm9.03,4.56c-1.44,0 -2.39,0.79 -2.78,1.53l-0.06,0l0,-1.31l-2.82,0l0,9.5l2.94,0l0,-4.69c0,-1.24 0.25,-2.43 1.78,-2.43c1.51,0 1.53,1.39 1.53,2.5l0,4.62l2.94,0l0,-5.22c0,-2.55 -0.54,-4.5 -3.53,-4.5zm-10.47,0.22l0,9.5l2.97,0l0,-9.5l-2.97,0z" fill="#ffffff" id="svg_1" stroke="#ffffff"/>
 </g>
</svg>