<?xml version="1.0"?>
<svg width="60" height="60" xmlns="http://www.w3.org/2000/svg" xmlns:svg="http://www.w3.org/2000/svg" version="1.1">
 <title/>
 <desc/>

 <g class="layer">
  <title>Layer 1</title>
  <g fill="none" fill-rule="evenodd" id="Page-1">
   <g id="Facebook" stroke="#000000" stroke-width="2" transform="translate(1.000000, 1.000000)">
    <path d="m39.04,58l0,-22.3l7.21,0l1.07,-8.7l-8.28,0l0,-5.55c0,-2.51 0.67,-4.22 4.15,-4.22l4.42,-0.01l0,-7.77c-0.76,-0.11 -3.39,-0.35 -6.45,-0.35c-6.38,0 -10.75,4.06 -10.75,11.5l0,6.4l-7.23,0l0,8.7l7.23,0l0,22.3l8.63,0l0,0z" id="Stroke-1" stroke="#ffffff"/>
    <path d="m54,58l-50,0c-2.21,0 -4,-1.79 -4,-4l0,-50c0,-2.21 1.79,-4 4,-4l50,0c2.21,0 4,1.79 4,4l0,50c0,2.21 -1.79,4 -4,4l0,0z" id="Stroke-99" stroke="#ffffff" stroke-linejoin="round"/>
   </g>
  </g>
 </g>
</svg>