<?xml version="1.0"?>
<svg width="60" height="60" xmlns="http://www.w3.org/2000/svg" xmlns:svg="http://www.w3.org/2000/svg" version="1.1">
 <title/>
 <desc/>

 <g class="layer">
  <title>Layer 1</title>
  <g fill="none" fill-rule="evenodd" id="Page-1" stroke-linejoin="round">
   <g id="Twitter" stroke="#000000" stroke-width="2" transform="translate(1.000000, 1.000000)">
    <path d="m52.38,9.12c-0.76,2.43 -2.37,4.48 -4.46,5.76c2.05,-0.25 4.01,-0.81 5.83,-1.63c-1.36,2.08 -3.08,3.91 -5.07,5.38c0.02,0.45 0.03,0.9 0.03,1.35c0,13.77 -10.21,29.63 -28.89,29.63c-5.74,0 -11.07,-1.73 -15.57,-4.68c0.8,0.1 1.6,0.15 2.42,0.15c4.76,0 9.14,-1.67 12.62,-4.46c-4.45,-0.08 -8.2,-3.1 -9.49,-7.23c0.62,0.12 1.26,0.19 1.91,0.19c0.93,0 1.83,-0.13 2.68,-0.37c-4.65,-0.95 -8.15,-5.17 -8.15,-10.21l0,-0.13c1.37,0.77 2.94,1.25 4.6,1.3c-2.73,-1.87 -4.52,-5.06 -4.52,-8.67c0,-1.9 0.5,-3.7 1.38,-5.24c5.01,6.31 12.49,10.45 20.93,10.88c-0.18,-0.76 -0.26,-1.55 -0.26,-2.37c0,-5.75 4.54,-10.41 10.15,-10.41c2.92,0 5.56,1.26 7.41,3.29c2.32,-0.47 4.49,-1.33 6.45,-2.53l0,0z" id="Stroke-3" stroke="#ffffff"/>
    <path d="m54,58l-50,0c-2.21,0 -4,-1.79 -4,-4l0,-50c0,-2.21 1.79,-4 4,-4l50,0c2.21,0 4,1.79 4,4l0,50c0,2.21 -1.79,4 -4,4l0,0z" id="Stroke-100" stroke="#ffffff"/>
   </g>
  </g>
 </g>
</svg>